<?xml version="1.0" standalone="no"?><!DOCTYPE svg PUBLIC "-//W3C//DTD SVG 1.1//EN" "http://www.w3.org/Graphics/SVG/1.1/DTD/svg11.dtd"><svg t="1542033269707" class="icon" style="" viewBox="0 0 1024 1024" version="1.1" xmlns="http://www.w3.org/2000/svg" p-id="3826" xmlns:xlink="http://www.w3.org/1999/xlink" width="128" height="128"><defs><style type="text/css"></style></defs><path d="M902.54848 346.1632c-124.66688 0-95.9488 119.18336-302.64832 145.32608-6.016-24.97536-22.42048-45.6448-44.41088-57.71264 94.67904-138.00448 243.5072-413.01504-57.97888-432.68096 0 0-150.43584-19.6608-150.43584 120.35072 0 124.7744 119.39328 95.8976 145.39264 303.19616-25.33888 5.67296-46.3616 22.04672-58.72128 44.04224-138.01472-94.67904-412.98432-243.46112-432.64512 58.00448 0 0-19.6608 150.43584 120.35072 150.43584 124.65152 0 95.95904-119.15776 302.58688-145.32096 5.6064 25.76896 22.36928 47.11936 44.84608 59.50464-94.70976 138.34752-242.00192 411.97568 58.71616 431.5904 0 0 150.43584 19.6608 150.43584-120.35072 0-124.58496-119.02464-95.98464-145.27488-302.24384 25.44128-5.91872 46.47424-22.59456 58.61888-44.93824 138.368 94.70976 411.904 241.89952 431.5136-58.76736 0.00512 0.00512 19.66592-150.43584-120.3456-150.43584z m-780.15488 271.41632c-72.02816 0-61.11232-120.97536-61.11232-120.97536 43.24864-235.0592 331.58656 0 331.58656 0-156.01664 0-198.44608 120.97536-270.47424 120.97536z m284.23168-495.18592c0-72.02816 120.97536-61.11232 120.97536-61.11232 235.0592 43.24864 0 331.58656 0 331.58656 0-156.01664-120.97536-198.44608-120.97536-270.47424z m211.86048 779.2128c0 72.02816-120.97536 61.11232-120.97536 61.11232-235.0592-43.24864 0-331.58656 0-331.58656 0 156.01664 120.97536 198.44608 120.97536 270.47424z m-106.10688-343.88992c-25.02656 0-45.30688-20.24448-45.30688-45.21984s20.28544-45.21984 45.30688-45.21984c25.02144 0 45.30688 20.24448 45.30688 45.21984s-20.28544 45.21984-45.30688 45.21984z m450.34496-31.0272c-43.24864 235.0592-331.58656 0-331.58656 0 156.01152 0 198.44096-120.97536 270.46912-120.97536s61.11744 120.97536 61.11744 120.97536z" p-id="3827" fill="#689f38"></path></svg>