<?xml version="1.0" standalone="no"?><!DOCTYPE svg PUBLIC "-//W3C//DTD SVG 1.1//EN" "http://www.w3.org/Graphics/SVG/1.1/DTD/svg11.dtd"><svg t="1542022434114" class="icon" style="" viewBox="0 0 1024 1024" version="1.1" xmlns="http://www.w3.org/2000/svg" p-id="2769" xmlns:xlink="http://www.w3.org/1999/xlink" width="128" height="128"><defs><style type="text/css"></style></defs><path d="M624.51002027 802.3048192h-466.386944V627.5334144c21.88793173-50.98154667 54.90059947-97.47606187 102.32572586-124.15358293 112.1779712-68.28086613 170.70380373 107.30100053 263.3728 131.6880384 107.30100053 29.26291627 185.33471573-48.775168 219.47569494-136.56610134 24.38703787-68.2819584 24.38703787-263.36843093 126.80997546-268.24758613 39.01904213 0 39.01904213-58.52801707 0-53.64995413-112.1746944 9.75284907-136.5639168 121.93191253-156.07289173 209.72284586-9.75284907 58.52910933-19.5100672 126.80997547-63.40389547 170.70380374-53.64995413 58.52801707-136.56282453 24.38703787-180.4599296-24.38485334-63.40389547-82.9161472-165.82464853-136.56610133-263.3728-58.52910933-18.95738027 16.24855893-34.89792 34.00444587-48.67467946 52.42661547V143.20380587c0-22.89609387-18.56088747-41.45698133-41.45698134-41.45698134s-41.45698133 18.56088747-41.45698133 41.45698134v700.5569024c0 22.89609387 18.56088747 41.45698133 41.45698133 41.45698133 0.30583467 0 0.60839253-0.016384 0.91313494-0.0229376 0.31894187 0.0065536 0.63460693 0.0229376 0.95464106 0.0229376h561.03185067c-25.1428864-21.9512832-44.38534827-50.48456533-55.05570133-82.9128704z" fill="#689f38" p-id="2770"></path><path d="M792.06045013 592.85504c-86.687744 0-156.9619968 70.2742528-156.9619968 156.9619968 0 86.687744 70.2742528 156.9619968 156.9619968 156.9619968 86.687744 0 156.9619968-70.2742528 156.9619968-156.9619968 0.00109227-86.687744-70.27316053-156.9619968-156.9619968-156.9619968z m0 263.29197227c-58.7235328 0-106.3288832-47.6053504-106.3288832-106.3288832 0-58.72462507 47.6053504-106.3288832 106.3288832-106.3288832s106.3288832 47.6053504 106.3288832 106.3288832c0.00109227 58.7235328-47.60425813 106.3288832-106.3288832 106.3288832z" fill="#689f38" p-id="2771"></path><path d="M855.93074347 722.6523648h-40.25658027v-40.25658027c0-11.45350827-9.28535893-20.7388672-20.7388672-20.7388672-11.45350827 0-20.7388672 9.28535893-20.7388672 20.7388672v60.99544747c0 11.45350827 9.28535893 20.7388672 20.7388672 20.7388672h60.99544747c11.45350827 0 20.7388672-9.28535893 20.7388672-20.7388672 0-11.45350827-9.28535893-20.7388672-20.7388672-20.7388672z" fill="#689f38" p-id="2772"></path></svg>