<?xml version="1.0" standalone="no"?><!DOCTYPE svg PUBLIC "-//W3C//DTD SVG 1.1//EN" "http://www.w3.org/Graphics/SVG/1.1/DTD/svg11.dtd"><svg t="1542021511740" class="icon" style="" viewBox="0 0 1024 1024" version="1.1" xmlns="http://www.w3.org/2000/svg" p-id="2022" xmlns:xlink="http://www.w3.org/1999/xlink" width="128" height="128"><defs><style type="text/css"></style></defs><path d="M627 959c-121.5 0-220-98.5-220-220a220.038 220.038 0 0 1 130-200.8V155a90 90 0 0 1 180 0v383.2A220.038 220.038 0 0 1 847 739c0 121.5-98.5 220-220 220z m30-377.18V155a30 30 0 0 0-60 0v426.82a160 160 0 1 0 60 0zM627 873a129.992 129.992 0 0 1-15.211-259.091A29.987 29.987 0 1 1 619 673v0.469a69.994 69.994 0 1 0 77.026 81.022A29.988 29.988 0 0 1 755.849 752h0.835A130 130 0 0 1 627 873z m0.5-326a10.5 10.5 0 0 1-10.5-10.5v-361a10.5 10.5 0 0 1 21 0v361a10.5 10.5 0 0 1-10.5 10.5zM447 306H267a30 30 0 0 1 0-60h180a30 30 0 0 1 0 60z m0-120H207a30 30 0 0 1 0-60h240a30 30 0 0 1 0 60z m0 360H317a30 30 0 0 1 0-60h130a30 30 0 0 1 0 60z m0-120H217a30 30 0 0 1 0-60h230a30 30 0 0 1 0 60z" fill="#689f38" p-id="2023"></path></svg>