<?xml version="1.0" standalone="no"?><!DOCTYPE svg PUBLIC "-//W3C//DTD SVG 1.1//EN" "http://www.w3.org/Graphics/SVG/1.1/DTD/svg11.dtd"><svg t="1542022414603" class="icon" style="" viewBox="0 0 1024 1024" version="1.1" xmlns="http://www.w3.org/2000/svg" p-id="1856" xmlns:xlink="http://www.w3.org/1999/xlink" width="128" height="128"><defs><style type="text/css"></style></defs><path d="M921.6 838.4H160c-12.8 0-25.6-12.8-25.6-25.6V211.2c0-12.8-12.8-25.6-25.6-25.6s-32 12.8-32 25.6v627.2c0 25.6 25.6 51.2 57.6 51.2h787.2c12.8 0 25.6-12.8 25.6-25.6s-12.8-25.6-25.6-25.6m0 0zM211.2 640h51.2c6.4 0 19.2-6.4 25.6-12.8l57.6-83.2 83.2 172.8c6.4 6.4 12.8 12.8 19.2 12.8 12.8 6.4 32-6.4 32-19.2l108.8-339.2 83.2 243.2c0 12.8 12.8 19.2 25.6 19.2h140.8c6.4 12.8 25.6 25.6 44.8 25.6 32 0 57.6-25.6 57.6-51.2s-25.6-51.2-57.6-51.2c-19.2 0-38.4 12.8-44.8 25.6H716.8L620.8 275.2c-6.4-12.8-19.2-19.2-32-12.8-6.4 0-12.8 0-12.8 6.4l-6.4 6.4-115.2 352-76.8-147.2-6.4-6.4c-6.4-12.8-19.2-12.8-32-12.8-6.4 0-12.8 6.4-12.8 12.8L249.6 588.8h-38.4c-12.8 0-25.6 12.8-25.6 25.6s12.8 25.6 25.6 25.6m0 0z" fill="#689f38" p-id="1857"></path></svg>