<?xml version="1.0" standalone="no"?><!DOCTYPE svg PUBLIC "-//W3C//DTD SVG 1.1//EN" "http://www.w3.org/Graphics/SVG/1.1/DTD/svg11.dtd"><svg class="icon" width="128px" height="128.00px" viewBox="0 0 1024 1024" version="1.1" xmlns="http://www.w3.org/2000/svg"><path d="M223.86688 547.31776c0 22.00064-18.37056 40.11008-40.6272 40.11008-22.76864 0-40.36608-18.10944-40.36608-40.11008l0-50.97472L142.8736 495.3088l0-1.03424L142.8736 333.84448 142.8736 332.544 142.8736 273.03424c0-21.99552 17.59744-40.6272 40.36608-40.6272 22.25664 0 40.6272 18.63168 40.6272 40.6272l0 20.17792 165.3504 0L389.21728 250.5216c0-13.71648 6.9888-25.61536 16.04608-33.1264l0-38.8096c-12.68224-3.36384-24.064-10.86976-33.1264-19.92704-1.80736-2.06848-3.61984-3.61984-5.43232-6.47168-3.88608 6.98368-9.05728 13.19936-14.4896 18.63168l-1.29536 1.55648c-18.10944 17.33632-41.92256 27.68384-68.83328 27.68384-27.16672 0-51.74784-11.12576-69.6064-29.24032l-1.81248-1.55136c-16.81408-17.59744-26.9056-41.66144-26.9056-68.31104 0-26.91584 10.60352-52.01408 28.71808-69.61152 17.85344-18.37568 42.43968-28.9792 69.6064-28.9792 27.17184 0 52.5312 10.60352 70.12864 28.7232l0 0.256 0-0.256c5.68832 5.6832 10.60352 12.16 14.75072 18.37056 1.55136-2.06848 3.36384-3.88608 5.1712-5.69344l0.26624 0 0 0c14.7456-15.52384 34.92864-24.064 57.7024-24.064 22.25664 0 42.43456 9.05728 57.4464 24.064l1.03424 1.29536 4.1472 4.9152c4.13696-6.72256 9.05216-13.19936 14.7456-18.63168l0-0.256c17.60256-18.11968 42.43968-28.7232 70.12864-28.7232 26.9056 0 51.74784 10.60352 69.8624 28.9792l1.03424 1.29536c17.59744 18.10944 27.68896 41.92256 27.68896 68.31616 0 27.42784-10.86976 52.5312-28.7232 69.8624-18.10944 18.11456-42.9568 29.24032-69.8624 29.24032-27.68896 0-52.28032-11.12576-70.12864-29.24032-5.69344-5.43232-10.60864-11.64288-14.7456-18.63168-1.81248 2.3296-3.62496 4.39808-5.18144 6.21568l0 0.256-0.77312 0.51712c-9.3184 9.31328-20.70528 16.04608-32.86528 19.40992l0 38.8096c10.09664 7.51104 16.04608 19.40992 16.04608 33.1264l0 42.69568 115.66592 0c81.5104 0 154.99264 33.6384 208.82432 86.43072l1.80736 2.84672c52.5312 53.30432 84.87936 126.27456 84.87936 206.22848l0 49.17248c0 22.25152-17.85344 40.3712-40.3712 40.3712l-1.03936 0-79.68768 0-80.73216 0c-22.51264 0-40.38144-18.11968-40.38144-40.3712l0-1.03936 0-48.128c0-14.4896-6.21056-27.68896-16.04608-37.25824-9.30304-9.57952-22.50752-15.77984-37.25312-15.77984L223.86688 535.69024 223.86688 547.31776 223.86688 547.31776zM452.86912 78.18752 452.86912 78.18752c-5.94944-6.21056-13.71648-10.09152-22.76864-10.09152-9.5744 0-17.85344 3.88096-23.54688 9.56928l-0.26112 0.52224c-5.95456 5.18144-9.05728 13.71648-9.05728 22.77376 0 9.05728 3.0976 17.33632 9.31328 23.28576 5.68832 5.94944 13.45536 9.5744 22.25152 9.5744l0.26624 0 1.02912 0 0 0 0.52224 0c8.53504 0 16.55808-3.62496 22.25152-9.5744 5.94944-5.94944 9.5744-14.22848 9.5744-23.28576 0-8.28416-3.10272-16.3072-8.54016-22.26176L452.86912 78.18752 452.86912 78.18752zM805.30944 953.84064 805.30944 953.84064c5.4272-5.94944 9.30816-12.43136 12.42112-19.1488l0-0.26112c3.09248-7.24992 4.14208-15.01184 4.14208-24.32 0-38.0416-29.76256-72.45824-57.96864-105.0624l0-0.26112-0.256 0.26112-3.61984-3.88096-3.36384 3.35872 0 0.26112c-28.2112 32.60928-58.73664 67.53792-58.73664 105.3184 0 9.30816 2.06336 17.07008 4.64384 24.32 3.10784 7.5008 7.77216 14.4896 13.4656 20.17792 5.69344 6.2208 13.18912 10.10176 20.1728 13.71136l0 0 0 0c7.24992 3.11808 15.01184 4.40832 23.81312 4.40832 8.79616 0 16.8192-1.29024 24.32-4.40832l0.52224-0.768c7.23968-2.8416 13.44512-7.51104 19.39968-12.93824L805.30944 953.84064 805.30944 953.84064zM861.96736 953.3184 861.96736 953.3184c-4.64384 12.68224-12.93312 24.32-22.25152 34.41152l-1.55648 1.03936c-9.56416 9.56928-21.21216 17.3312-34.41152 23.28064l-1.03424 0.53248c-13.18912 5.94944-27.68896 9.05216-42.69056 9.05216-15.01184 0-29.51168-3.0976-42.4448-9.05216-13.45024-5.94944-25.87136-13.7216-35.70176-23.808l0 0c-10.10176-10.34752-18.37568-22.25152-23.80288-35.45088-5.95456-13.18912-9.06752-27.68896-9.06752-43.20768 0-55.6288 37.00224-97.8176 71.41888-137.14944l0-0.52224c6.98368-7.76192 13.97248-15.77984 20.70016-24.32 1.30048-1.03936 2.59584-2.06848 3.88608-3.88096 10.60864-8.27904 25.35936-6.9888 33.8944 3.88096 5.43744 6.47168 13.19424 16.04096 21.21216 25.35936 34.432 38.8096 70.912 80.73216 70.912 136.63232C871.02976 925.62944 867.92192 940.12928 861.96736 953.3184L861.96736 953.3184zM317.79328 65.50528 317.79328 65.50528c-8.79616-9.56928-21.4784-14.75072-35.712-14.75072-13.71136 0-26.3936 5.18144-35.18976 14.75072L246.3744 65.50528c-8.79616 9.0624-14.48448 21.4784-14.48448 35.456 0 13.45024 5.1712 26.13248 13.71136 34.66752l1.29536 0.77312c8.79616 9.0624 21.4784 15.01184 35.18976 15.01184 13.71648 0 26.1376-4.92032 34.42176-13.45536l1.29024-1.55648c9.57952-8.79616 15.01696-21.2224 15.01696-35.44576C332.81024 86.98368 327.3728 74.56256 317.79328 65.50528L317.79328 65.50528zM613.0432 65.50528 613.0432 65.50528c-9.0624-9.56928-21.7344-14.75072-35.44576-14.75072-14.23872 0-27.17696 5.18144-35.72224 14.75072-9.30816 9.0624-14.74048 21.4784-14.74048 35.456 0 14.22336 5.43232 26.6496 14.74048 35.44576l0 0.26112c8.54528 8.80128 21.4784 14.75072 35.72224 14.75072 13.71136 0 26.38336-5.94944 35.44576-15.01184 9.05216-8.79616 14.7456-21.2224 14.7456-35.44576 0-13.19936-4.92032-25.35936-13.71648-34.42176L613.0432 65.50528 613.0432 65.50528zM223.86688 374.47168 223.86688 374.47168l0 80.21504 361.74848 0c37.25312 0 70.38464 15.78496 94.70976 39.58784 24.064 24.32512 39.07584 57.70752 39.07584 94.44352l0 8.54016 40.6272 0 40.6272 0 0-8.54016c0-58.20928-23.80288-111.00672-61.84448-149.56032l-1.55136-1.55136c-39.07584-39.33184-92.3904-63.13984-151.63904-63.13984L223.86688 374.46656 223.86688 374.47168z" fill="#689f38" /></svg>