<?xml version="1.0" standalone="no"?><!DOCTYPE svg PUBLIC "-//W3C//DTD SVG 1.1//EN" "http://www.w3.org/Graphics/SVG/1.1/DTD/svg11.dtd"><svg t="1542000078902" class="icon" style="" viewBox="0 0 1024 1024" version="1.1" xmlns="http://www.w3.org/2000/svg" p-id="1462" xmlns:xlink="http://www.w3.org/1999/xlink" width="128" height="128"><defs><style type="text/css"></style></defs><path d="M810.666667 618.666667C810.666667 618.666667 896 711.253333 896 768 896 814.933333 857.6 853.333333 810.666667 853.333333 763.733333 853.333333 725.333333 814.933333 725.333333 768 725.333333 711.253333 810.666667 618.666667 810.666667 618.666667M213.333333 768 213.333333 384C166.4 384 128 345.6 128 298.666667 128 251.733333 166.4 213.333333 213.333333 213.333333L213.333333 170.666667C213.333333 123.733333 251.733333 85.333333 298.666667 85.333333L384 85.333333C430.933333 85.333333 469.333333 123.733333 469.333333 170.666667L469.333333 213.333333 810.666667 213.333333C857.6 213.333333 896 251.733333 896 298.666667L896 384 896 469.333333C919.466667 469.333333 938.666667 488.533333 938.666667 512 938.666667 535.466667 919.466667 554.666667 896 554.666667L725.333333 554.666667C701.866667 554.666667 682.666667 535.466667 682.666667 512 682.666667 488.533333 701.866667 469.333333 725.333333 469.333333L725.333333 384 469.333333 384 469.333333 768 512 768C558.933333 768 597.333333 806.4 597.333333 853.333333L597.333333 938.666667 85.333333 938.666667 85.333333 853.333333C85.333333 806.4 123.733333 768 170.666667 768L213.333333 768Z" p-id="1463" fill="#ffffff"></path></svg>